# xmcd
#
# Track frame offsets:
#        150
#        21332
#        47570
#        74562
#        90387
#        112385
#        140975
#        157167
#        183970
#        202512
#        222915
#        246880
#        268460
#        289900
#        309845
#        330680
#
# Disc length: 4684 seconds
#
# Revision: 0
# Processed by: cddbd v1.5.1PL0 Copyright (c) Steve Scherf et al.
# Submitted via: ExactAudioCopy v0.95a5
#
DISCID=fb124a10
DTITLE=Various Artist - healing gospels Premium
DYEAR=2002
DGENRE=Gospel
TTITLE0=The Boys Choir Of Harlem - Amazing Grace
TTITLE1=Chaka Khan, Gladys Knight, Vanessa Williams, Patti Austin, Jef
TTITLE1=frey Osborne, Stephanie Mills, Take 6, Sounds Of Blackness, An
TTITLE1=dra
TTITLE2=from O.ST."Mama, I Want To Sing" - Mama, I Want To Sing
TTITLE3=Aretha Franklin - I Say A Little Prayer
TTITLE4=Sounds Of Blackness - I'm Going All The Way
TTITLE5=BeBe Winans - Oh Happy Day
TTITLE6=Take 6 - People Get Ready
TTITLE7=Yolanda Adams (duet with Gerald Levert) - I Believe I Can Fly
TTITLE8=Fontella Bass - Lean On Me
TTITLE9=The Steeles - Never Get Over You
TTITLE10=Andrae Crouch - The Lord Is My Light
TTITLE11=The Winans - Everyday The Same
TTITLE12=Linda Lewis - Reach For The Truth
TTITLE13=Donny Hathaway - You've Got A Friend
TTITLE14=Karen Clark Sheard - It's Not Over
TTITLE15=Baby Boo - I'll Be There
EXTD=
EXTT0=
EXTT1=
EXTT2=
EXTT3=
EXTT4=
EXTT5=
EXTT6=
EXTT7=
EXTT8=
EXTT9=
EXTT10=
EXTT11=
EXTT12=
EXTT13=
EXTT14=
EXTT15=
PLAYORDER=
